<svg xmlns="http://www.w3.org/2000/svg" viewBox="0 0 96 96" width="96" height="96" fill="none">
  <path d="M48.8 72.5C41.2 81.5 27.2 79.4 19.4 68.8C11.8 58.5 12.6 43.8 20.7 34.3C27.9 25.8 39.6 25.1 46.5 33.4C52.7 40.9 52.8 51.5 47.9 60.5C45.9 64.2 43.3 67.5 40.2 70.2" stroke="#f4c7d5" stroke-width="5.5" stroke-linecap="round" stroke-linejoin="round"/>
  <path d="M47.1 72.5C55.6 81.4 69.7 79.1 77.4 68C84.6 57.7 83.4 43.1 75 34C67.5 25.9 55.8 25.6 49.1 34.3C43.2 41.9 43.5 52.2 48.4 61C50.6 64.9 53.4 68 56.3 70.2" stroke="#f4c7d5" stroke-width="5.5" stroke-linecap="round" stroke-linejoin="round"/>
</svg>
